<mxfile host="www.draw.io" modified="2020-02-01T08:39:22.303Z" agent="Mozilla/5.0 (Macintosh; Intel Mac OS X 10_14_6) AppleWebKit/537.36 (KHTML, like Gecko) Chrome/79.0.3945.130 Safari/537.36" etag="zbmesJ5H5_tpl_FqsIRq" version="12.6.2" type="github">
  <diagram id="J6FIPwA2dGFhnOmoy--k" name="第 1 页">
    <mxGraphModel dx="1012" dy="477" grid="1" gridSize="10" guides="1" tooltips="1" connect="1" arrows="1" fold="1" page="1" pageScale="1" pageWidth="827" pageHeight="1169" math="0" shadow="0">
      <root>
        <mxCell id="0"/>
        <mxCell id="1" parent="0"/>
        <mxCell id="8ODlPxmyZQtsZDisSIkz-1" value="AnnotationConfigApplicationContext" style="shape=umlLifeline;perimeter=lifelinePerimeter;whiteSpace=wrap;html=1;container=1;collapsible=0;recursiveResize=0;outlineConnect=0;" parent="1" vertex="1">
          <mxGeometry x="90" y="100" width="220" height="1069" as="geometry"/>
        </mxCell>
        <mxCell id="8ODlPxmyZQtsZDisSIkz-9" value="" style="html=1;points=[];perimeter=orthogonalPerimeter;" parent="8ODlPxmyZQtsZDisSIkz-1" vertex="1">
          <mxGeometry x="105" y="60" width="10" height="740" as="geometry"/>
        </mxCell>
        <mxCell id="8ODlPxmyZQtsZDisSIkz-10" value="constructor" style="edgeStyle=orthogonalEdgeStyle;html=1;align=left;spacingLeft=2;endArrow=block;rounded=0;entryX=1;entryY=0;" parent="8ODlPxmyZQtsZDisSIkz-1" target="8ODlPxmyZQtsZDisSIkz-9" edge="1">
          <mxGeometry relative="1" as="geometry">
            <mxPoint x="110" y="80" as="sourcePoint"/>
            <Array as="points">
              <mxPoint x="135" y="80"/>
            </Array>
          </mxGeometry>
        </mxCell>
        <mxCell id="8ODlPxmyZQtsZDisSIkz-55" value="new AnnotationBeanDefinitionReader(this)" style="html=1;verticalAlign=bottom;endArrow=block;" parent="8ODlPxmyZQtsZDisSIkz-1" target="8ODlPxmyZQtsZDisSIkz-52" edge="1">
          <mxGeometry width="80" relative="1" as="geometry">
            <mxPoint x="110" y="761" as="sourcePoint"/>
            <mxPoint x="190" y="761" as="targetPoint"/>
          </mxGeometry>
        </mxCell>
        <mxCell id="8ODlPxmyZQtsZDisSIkz-59" value="" style="html=1;points=[];perimeter=orthogonalPerimeter;" parent="8ODlPxmyZQtsZDisSIkz-1" vertex="1">
          <mxGeometry x="105" y="811" width="10" height="119" as="geometry"/>
        </mxCell>
        <mxCell id="8ODlPxmyZQtsZDisSIkz-60" value="new StandardEnvironment()" style="html=1;verticalAlign=bottom;endArrow=block;" parent="8ODlPxmyZQtsZDisSIkz-1" target="8ODlPxmyZQtsZDisSIkz-52" edge="1">
          <mxGeometry width="80" relative="1" as="geometry">
            <mxPoint x="110" y="871" as="sourcePoint"/>
            <mxPoint x="190" y="871" as="targetPoint"/>
          </mxGeometry>
        </mxCell>
        <mxCell id="8ODlPxmyZQtsZDisSIkz-2" value="GenericApplicationContext" style="shape=umlLifeline;perimeter=lifelinePerimeter;whiteSpace=wrap;html=1;container=1;collapsible=0;recursiveResize=0;outlineConnect=0;" parent="1" vertex="1">
          <mxGeometry x="420" y="110" width="190" height="650" as="geometry"/>
        </mxCell>
        <mxCell id="8ODlPxmyZQtsZDisSIkz-11" value="" style="html=1;points=[];perimeter=orthogonalPerimeter;" parent="8ODlPxmyZQtsZDisSIkz-2" vertex="1">
          <mxGeometry x="90" y="150" width="10" height="380" as="geometry"/>
        </mxCell>
        <mxCell id="8ODlPxmyZQtsZDisSIkz-14" value="constructor" style="html=1;verticalAlign=bottom;endArrow=block;" parent="8ODlPxmyZQtsZDisSIkz-2" target="8ODlPxmyZQtsZDisSIkz-6" edge="1">
          <mxGeometry width="80" relative="1" as="geometry">
            <mxPoint x="100" y="150" as="sourcePoint"/>
            <mxPoint x="180" y="150" as="targetPoint"/>
          </mxGeometry>
        </mxCell>
        <mxCell id="8ODlPxmyZQtsZDisSIkz-27" value="this.beanFactory = new DefaultListabledBeanFactory()" style="html=1;verticalAlign=bottom;endArrow=block;" parent="8ODlPxmyZQtsZDisSIkz-2" target="8ODlPxmyZQtsZDisSIkz-25" edge="1">
          <mxGeometry width="80" relative="1" as="geometry">
            <mxPoint x="100" y="490" as="sourcePoint"/>
            <mxPoint x="180" y="490" as="targetPoint"/>
          </mxGeometry>
        </mxCell>
        <mxCell id="8ODlPxmyZQtsZDisSIkz-6" value="AbstractApplicationContext" style="shape=umlLifeline;perimeter=lifelinePerimeter;whiteSpace=wrap;html=1;container=1;collapsible=0;recursiveResize=0;outlineConnect=0;" parent="1" vertex="1">
          <mxGeometry x="690" y="110" width="190" height="650" as="geometry"/>
        </mxCell>
        <mxCell id="8ODlPxmyZQtsZDisSIkz-13" value="" style="html=1;points=[];perimeter=orthogonalPerimeter;" parent="8ODlPxmyZQtsZDisSIkz-6" vertex="1">
          <mxGeometry x="90" y="150" width="10" height="230" as="geometry"/>
        </mxCell>
        <mxCell id="8ODlPxmyZQtsZDisSIkz-16" value="constructor" style="html=1;verticalAlign=bottom;endArrow=block;" parent="8ODlPxmyZQtsZDisSIkz-6" target="8ODlPxmyZQtsZDisSIkz-15" edge="1">
          <mxGeometry width="80" relative="1" as="geometry">
            <mxPoint x="100" y="170" as="sourcePoint"/>
            <mxPoint x="180" y="170" as="targetPoint"/>
          </mxGeometry>
        </mxCell>
        <mxCell id="8ODlPxmyZQtsZDisSIkz-20" value="getResourcePatternResolver();&lt;br&gt;return resourcePatternResolver" style="edgeStyle=orthogonalEdgeStyle;html=1;align=left;spacingLeft=2;endArrow=block;rounded=0;entryX=1;entryY=0;" parent="8ODlPxmyZQtsZDisSIkz-6" edge="1">
          <mxGeometry relative="1" as="geometry">
            <mxPoint x="95" y="320" as="sourcePoint"/>
            <Array as="points">
              <mxPoint x="120" y="320"/>
            </Array>
            <mxPoint x="100" y="340" as="targetPoint"/>
          </mxGeometry>
        </mxCell>
        <mxCell id="8ODlPxmyZQtsZDisSIkz-7" value="DefaultResourceLoader" style="shape=umlLifeline;perimeter=lifelinePerimeter;whiteSpace=wrap;html=1;container=1;collapsible=0;recursiveResize=0;outlineConnect=0;" parent="1" vertex="1">
          <mxGeometry x="990" y="110" width="190" height="650" as="geometry"/>
        </mxCell>
        <mxCell id="8ODlPxmyZQtsZDisSIkz-15" value="" style="html=1;points=[];perimeter=orthogonalPerimeter;" parent="8ODlPxmyZQtsZDisSIkz-7" vertex="1">
          <mxGeometry x="90" y="170" width="10" height="160" as="geometry"/>
        </mxCell>
        <mxCell id="8ODlPxmyZQtsZDisSIkz-18" value="ClassUtils.getDefaultClassLoader();&lt;br&gt;return classLoader" style="edgeStyle=orthogonalEdgeStyle;html=1;align=left;spacingLeft=2;endArrow=block;rounded=0;entryX=1;entryY=0;" parent="8ODlPxmyZQtsZDisSIkz-7" edge="1">
          <mxGeometry relative="1" as="geometry">
            <mxPoint x="95" y="270" as="sourcePoint"/>
            <Array as="points">
              <mxPoint x="120" y="270"/>
            </Array>
            <mxPoint x="100" y="290" as="targetPoint"/>
          </mxGeometry>
        </mxCell>
        <mxCell id="8ODlPxmyZQtsZDisSIkz-21" value="PathMatchingResourcePatternResolver" style="shape=umlLifeline;perimeter=lifelinePerimeter;whiteSpace=wrap;html=1;container=1;collapsible=0;recursiveResize=0;outlineConnect=0;" parent="1" vertex="1">
          <mxGeometry x="1300" y="110" width="230" height="660" as="geometry"/>
        </mxCell>
        <mxCell id="8ODlPxmyZQtsZDisSIkz-23" value="" style="html=1;points=[];perimeter=orthogonalPerimeter;" parent="8ODlPxmyZQtsZDisSIkz-21" vertex="1">
          <mxGeometry x="110" y="370" width="10" height="70" as="geometry"/>
        </mxCell>
        <mxCell id="8ODlPxmyZQtsZDisSIkz-22" value="&lt;span style=&quot;font-size: 12px ; white-space: normal ; background-color: rgb(248 , 249 , 250)&quot;&gt;PathMatchingResourcePatternResolver(ResourceLoader resourceLoader)&lt;/span&gt;" style="html=1;verticalAlign=bottom;endArrow=block;exitX=0.9;exitY=0.8;exitDx=0;exitDy=0;exitPerimeter=0;" parent="1" target="8ODlPxmyZQtsZDisSIkz-21" edge="1">
          <mxGeometry width="80" relative="1" as="geometry">
            <mxPoint x="789" y="482" as="sourcePoint"/>
            <mxPoint x="870" y="470" as="targetPoint"/>
          </mxGeometry>
        </mxCell>
        <mxCell id="8ODlPxmyZQtsZDisSIkz-25" value="DefaultListabledBeanFactory" style="shape=umlLifeline;perimeter=lifelinePerimeter;whiteSpace=wrap;html=1;container=1;collapsible=0;recursiveResize=0;outlineConnect=0;" parent="1" vertex="1">
          <mxGeometry x="1590" y="110" width="230" height="660" as="geometry"/>
        </mxCell>
        <mxCell id="8ODlPxmyZQtsZDisSIkz-26" value="" style="html=1;points=[];perimeter=orthogonalPerimeter;" parent="8ODlPxmyZQtsZDisSIkz-25" vertex="1">
          <mxGeometry x="110" y="490" width="10" height="70" as="geometry"/>
        </mxCell>
        <mxCell id="8ODlPxmyZQtsZDisSIkz-30" value="super()" style="html=1;verticalAlign=bottom;endArrow=block;" parent="8ODlPxmyZQtsZDisSIkz-25" target="8ODlPxmyZQtsZDisSIkz-28" edge="1">
          <mxGeometry width="80" relative="1" as="geometry">
            <mxPoint x="120" y="510" as="sourcePoint"/>
            <mxPoint x="200" y="510" as="targetPoint"/>
          </mxGeometry>
        </mxCell>
        <mxCell id="8ODlPxmyZQtsZDisSIkz-28" value="AbstractAutowireCapableBeanFactory" style="shape=umlLifeline;perimeter=lifelinePerimeter;whiteSpace=wrap;html=1;container=1;collapsible=0;recursiveResize=0;outlineConnect=0;" parent="1" vertex="1">
          <mxGeometry x="1890" y="110" width="230" height="810" as="geometry"/>
        </mxCell>
        <mxCell id="8ODlPxmyZQtsZDisSIkz-29" value="" style="html=1;points=[];perimeter=orthogonalPerimeter;" parent="8ODlPxmyZQtsZDisSIkz-28" vertex="1">
          <mxGeometry x="110" y="510" width="10" height="240" as="geometry"/>
        </mxCell>
        <mxCell id="8ODlPxmyZQtsZDisSIkz-34" value="super()" style="html=1;verticalAlign=bottom;endArrow=block;" parent="8ODlPxmyZQtsZDisSIkz-28" target="8ODlPxmyZQtsZDisSIkz-31" edge="1">
          <mxGeometry width="80" relative="1" as="geometry">
            <mxPoint x="120" y="530" as="sourcePoint"/>
            <mxPoint x="200" y="530" as="targetPoint"/>
          </mxGeometry>
        </mxCell>
        <mxCell id="8ODlPxmyZQtsZDisSIkz-37" value="ignoreDependencyInterface(BeanNameAware.class)" style="edgeStyle=orthogonalEdgeStyle;html=1;align=left;spacingLeft=2;endArrow=block;rounded=0;entryX=1;entryY=0;" parent="8ODlPxmyZQtsZDisSIkz-28" edge="1">
          <mxGeometry relative="1" as="geometry">
            <mxPoint x="115" y="590" as="sourcePoint"/>
            <Array as="points">
              <mxPoint x="140" y="590"/>
            </Array>
            <mxPoint x="120" y="610" as="targetPoint"/>
          </mxGeometry>
        </mxCell>
        <mxCell id="8ODlPxmyZQtsZDisSIkz-41" value="ignoreDependencyInterface(BeanFactoryAware.class)" style="edgeStyle=orthogonalEdgeStyle;html=1;align=left;spacingLeft=2;endArrow=block;rounded=0;entryX=1;entryY=0;" parent="8ODlPxmyZQtsZDisSIkz-28" edge="1">
          <mxGeometry relative="1" as="geometry">
            <mxPoint x="115" y="640" as="sourcePoint"/>
            <Array as="points">
              <mxPoint x="140" y="640"/>
            </Array>
            <mxPoint x="120" y="660" as="targetPoint"/>
          </mxGeometry>
        </mxCell>
        <mxCell id="8ODlPxmyZQtsZDisSIkz-43" value="ignoreDependencyInterface(BeanClassLoaderAware.class)" style="edgeStyle=orthogonalEdgeStyle;html=1;align=left;spacingLeft=2;endArrow=block;rounded=0;entryX=1;entryY=0;" parent="8ODlPxmyZQtsZDisSIkz-28" edge="1">
          <mxGeometry relative="1" as="geometry">
            <mxPoint x="115" y="700" as="sourcePoint"/>
            <Array as="points">
              <mxPoint x="140" y="700"/>
            </Array>
            <mxPoint x="120" y="720" as="targetPoint"/>
          </mxGeometry>
        </mxCell>
        <mxCell id="8ODlPxmyZQtsZDisSIkz-31" value="AbstractBeanFactory" style="shape=umlLifeline;perimeter=lifelinePerimeter;whiteSpace=wrap;html=1;container=1;collapsible=0;recursiveResize=0;outlineConnect=0;" parent="1" vertex="1">
          <mxGeometry x="2251" y="110" width="230" height="800" as="geometry"/>
        </mxCell>
        <mxCell id="8ODlPxmyZQtsZDisSIkz-32" value="" style="html=1;points=[];perimeter=orthogonalPerimeter;" parent="8ODlPxmyZQtsZDisSIkz-31" vertex="1">
          <mxGeometry x="110" y="530" width="10" height="60" as="geometry"/>
        </mxCell>
        <mxCell id="8ODlPxmyZQtsZDisSIkz-35" value="无参实例方法" style="text;html=1;align=center;verticalAlign=middle;resizable=0;points=[];autosize=1;" parent="1" vertex="1">
          <mxGeometry x="2275" y="656" width="90" height="20" as="geometry"/>
        </mxCell>
        <mxCell id="8ODlPxmyZQtsZDisSIkz-52" value="AnnotationBeanDefinitionReader" style="shape=umlLifeline;perimeter=lifelinePerimeter;whiteSpace=wrap;html=1;container=1;collapsible=0;recursiveResize=0;outlineConnect=0;" parent="1" vertex="1">
          <mxGeometry x="2560" y="110" width="230" height="1070" as="geometry"/>
        </mxCell>
        <mxCell id="8ODlPxmyZQtsZDisSIkz-54" value="" style="html=1;points=[];perimeter=orthogonalPerimeter;" parent="8ODlPxmyZQtsZDisSIkz-52" vertex="1">
          <mxGeometry x="110" y="750" width="10" height="200" as="geometry"/>
        </mxCell>
        <mxCell id="8ODlPxmyZQtsZDisSIkz-57" value="getOrCreateEnvironment(registry)" style="edgeStyle=orthogonalEdgeStyle;html=1;align=left;spacingLeft=2;endArrow=block;rounded=0;entryX=1;entryY=0;" parent="8ODlPxmyZQtsZDisSIkz-52" edge="1">
          <mxGeometry relative="1" as="geometry">
            <mxPoint x="115" y="778" as="sourcePoint"/>
            <Array as="points">
              <mxPoint x="140" y="778"/>
            </Array>
            <mxPoint x="120" y="798" as="targetPoint"/>
          </mxGeometry>
        </mxCell>
        <mxCell id="8ODlPxmyZQtsZDisSIkz-58" value="getEnvironment()" style="html=1;verticalAlign=bottom;endArrow=block;exitX=0.5;exitY=0.25;exitDx=0;exitDy=0;exitPerimeter=0;" parent="1" edge="1">
          <mxGeometry width="80" relative="1" as="geometry">
            <mxPoint x="2675" y="992.5" as="sourcePoint"/>
            <mxPoint x="200" y="993" as="targetPoint"/>
          </mxGeometry>
        </mxCell>
        <mxCell id="8ODlPxmyZQtsZDisSIkz-12" value="constructor" style="html=1;verticalAlign=bottom;endArrow=block;" parent="1" edge="1">
          <mxGeometry width="80" relative="1" as="geometry">
            <mxPoint x="205" y="260" as="sourcePoint"/>
            <mxPoint x="519.5" y="260" as="targetPoint"/>
          </mxGeometry>
        </mxCell>
      </root>
    </mxGraphModel>
  </diagram>
</mxfile>
